<?xml version="1.0" encoding="UTF-8"?>
<svg version="1.1" xmlns="http://www.w3.org/2000/svg" width="1024" height="1024">
<path d="M0 0 C-0.144375 0.55042969 -0.28875 1.10085938 -0.4375 1.66796875 C-4.32176841 19.06625433 -3.30303856 37.11101755 5.5 52.72265625 C6.89678627 55.01078144 6.89678627 55.01078144 8.6875 56.68359375 C10 58 10 58 10 60 C10.66 60 11.32 60 12 60 C12 60.66 12 61.32 12 62 C12.57234375 62.26941406 13.1446875 62.53882813 13.734375 62.81640625 C16.06000393 64.03134688 18.10853807 65.42384076 20.25 66.9375 C24.35370287 69.70699405 28.29925429 71.51192327 33 73 C34.155 73.391875 35.31 73.78375 36.5 74.1875 C37.325 74.455625 38.15 74.72375 39 75 C35.33672983 78.90748818 31.34231176 82.18128997 27.140625 85.49609375 C23.21383965 88.60717633 19.36152508 91.80859415 15.5 95 C10.04425676 99.50502648 4.56625718 103.97618019 -0.97265625 108.37890625 C-3.68291382 110.54606789 -6.34570317 112.76480267 -9 115 C-7.32198127 118.86225539 -4.79660053 121.98678695 -2.1875 125.25 C-1.46433594 126.16265625 -1.46433594 126.16265625 -0.7265625 127.09375 C3.52450217 132.44291577 7.84027018 137.73952191 12.15917969 143.03393555 C16.12973056 147.90779263 20.03435497 152.82882612 23.90625 157.78125 C27.24154728 162.04463 30.61257434 166.27794395 34 170.5 C37.84264207 175.28943357 41.6556462 180.09994164 45.4375 184.9375 C49.35487949 189.94775621 53.34717208 194.89073322 57.375 199.8125 C63.56543672 207.3940151 69.55344294 215.1158952 75.43896484 222.93603516 C76.962947 224.95100937 78.50528453 226.95072299 80.05078125 228.94921875 C88.9487583 240.57956377 98.72729503 255.78275008 98 271 C95.36739301 268.6946097 94.2998122 266.64991896 93.125 263.375 C86.73864926 246.80890222 75.05207041 232.92500819 59 225 C39.31504727 216.64950889 19.6882011 215.68500841 -0.25 223.625 C-20.22431212 232.83866333 -31.90404053 249.33762236 -39.7734375 269.296875 C-41 272 -41 272 -43 273 C-43.51046875 271.88367188 -44.0209375 270.76734375 -44.546875 269.6171875 C-49.09123705 259.79361226 -53.96391162 250.22907327 -59.20410156 240.75927734 C-63.26442761 233.40359576 -67.15549391 225.97050235 -71 218.5 C-75.66877489 209.43625999 -80.44380847 200.4467485 -85.37524414 191.5234375 C-88.30608229 186.19092001 -91.14017243 180.81764895 -93.90625 175.3984375 C-94.2408876 174.74424835 -94.57552521 174.0900592 -94.92030334 173.41604614 C-96.56979201 170.18888613 -98.21038875 166.95766378 -99.83764648 163.71923828 C-103.6657945 156.20302784 -107.10726909 150.0778708 -113.8125 144.8125 C-123.81191375 136.249675 -130.9465618 123.89974296 -132.22314453 110.69116211 C-132.97729638 94.70869286 -130.66734711 82.13027742 -121 69 C-120.48824219 68.29230469 -119.97648438 67.58460938 -119.44921875 66.85546875 C-111.43544925 56.7736297 -99.11899119 50.70513907 -87.79885864 45.05419922 C-84.38216532 43.34839845 -80.98109315 41.61188022 -77.578125 39.87890625 C-76.914142 39.54174591 -76.250159 39.20458557 -75.5660553 38.85720825 C-70.32968456 36.19063164 -65.17542792 33.39667121 -60.0625 30.5 C-54.15889173 27.16302973 -48.1909562 24.03380355 -42.10791016 21.03710938 C-36.84120276 18.43825945 -31.63197564 15.74022889 -26.4375 13 C-25.24761475 12.37279053 -25.24761475 12.37279053 -24.03369141 11.73291016 C-20.18981711 9.70163298 -16.35463897 7.65552505 -12.53125 5.5859375 C-11.83845947 5.21210938 -11.14566895 4.83828125 -10.43188477 4.453125 C-9.13343085 3.75120647 -7.83693056 3.04565796 -6.54272461 2.3359375 C-2.22184855 0 -2.22184855 0 0 0 Z M-105 79 C-111.87620453 88.10139538 -113.75173071 97.80304917 -112.3125 109 C-110.7908766 118.69767025 -106.83830551 127.35900324 -99 133.58984375 C-89.69305462 140.19842129 -79.3809728 143.01001467 -67.953125 141.6328125 C-56.94721096 139.32328132 -47.34711416 133.37366724 -41 124 C-35.78283985 114.33150138 -34.454736 104.06718705 -36.53125 93.2265625 C-39.72288368 83.06190306 -47.07698706 75.53897225 -56 70 C-58.94397824 68.72706116 -61.89860216 67.80540177 -65 67 C-65.804375 66.773125 -66.60875 66.54625 -67.4375 66.3125 C-81.83821809 64.55631487 -94.88988729 68.23436876 -105 79 Z " fill="#00DBFE" transform="translate(357,305)"/>
<path d="M0 0 C21.19269395 17.54540061 23.75580898 42.15890004 28.5625 67.6875 C29.02553735 70.12444484 29.48907509 72.56129465 29.953125 74.99804688 C31.07868632 80.91428177 32.1980713 86.83165854 33.3125 92.75 C34.81031006 92.76401855 34.81031006 92.76401855 36.33837891 92.77832031 C40.06245642 92.81835745 43.78571967 92.88415266 47.50927734 92.95751953 C49.11724341 92.98565005 50.72534572 93.00690389 52.33349609 93.02099609 C54.65272367 93.04253691 56.97032695 93.08923872 59.2890625 93.140625 C60.00180328 93.14185364 60.71454407 93.14308228 61.44888306 93.14434814 C66.51408796 93.29117437 69.36065961 94.64801776 73.3125 97.75 C73.90675781 98.21277344 74.50101563 98.67554688 75.11328125 99.15234375 C80.78844854 106.71307151 78.74170615 122.60691087 78.3125 131.75 C74.02844283 136.03405717 57.82217035 133.86454263 51.82203257 133.87501323 C48.88419161 133.87439857 45.94638052 133.86901243 43.00854492 133.86352539 C40.87857566 133.86324287 38.74860629 133.86340252 36.61863708 133.8639679 C30.87164767 133.86425333 25.12467938 133.85839777 19.37769485 133.85139394 C13.35859393 133.845118 7.33949247 133.84455326 1.32038879 133.84336853 C-10.0618748 133.84026768 -21.44412872 133.83207115 -32.82638806 133.82201904 C-45.79137506 133.81081912 -58.75636254 133.8053377 -71.72135317 133.80032361 C-98.3767408 133.78988744 -125.03211986 133.77231223 -151.6875 133.75 C-152.61474972 127.48985108 -152.80769998 121.62579948 -152.625 115.3125 C-152.62306641 114.31412109 -152.62113281 113.31574219 -152.61914062 112.28710938 C-152.42512552 106.00845037 -151.3509176 102.18056757 -147.35766602 97.28881836 C-143.25162554 93.50569117 -139.25917323 93.4222013 -133.859375 93.3359375 C-132.73586639 93.30688828 -132.73586639 93.30688828 -131.58966064 93.2772522 C-129.20572164 93.21764284 -126.82173386 93.17114646 -124.4375 93.125 C-122.81768769 93.08680299 -121.19789532 93.04775025 -119.578125 93.0078125 C-115.61474594 92.91195687 -111.65127181 92.82785754 -107.6875 92.75 C-107.55857361 92.1465979 -107.42964722 91.5431958 -107.29681396 90.92150879 C-105.93702226 84.56007962 -104.57333258 78.19949449 -103.20751953 71.83935547 C-102.70036319 69.47530585 -102.1941542 67.11105277 -101.68896484 64.74658203 C-96.84192016 42.06625215 -96.84192016 42.06625215 -94.51953125 32.515625 C-94.09377808 30.76427246 -94.09377808 30.76427246 -93.65942383 28.97753906 C-89.15995687 14.03582764 -78.06407007 1.5149358 -64.6875 -6.25 C-43.97563627 -17.35940914 -18.59037709 -13.68458314 0 0 Z M-53.6875 27.75 C-59.56435952 33.16479686 -62.40486417 39.24288365 -62.81640625 47.26171875 C-62.43826513 54.5609882 -60.11503719 61.64339326 -54.6015625 66.640625 C-47.90532508 71.34855984 -40.94130366 73.7147303 -32.6875 72.75 C-26.17627906 71.41176979 -21.06101321 68.81645946 -16.6875 63.75 C-12.58707925 57.39372467 -11.183791 51.30563501 -11.6875 43.75 C-13.78155644 35.34489071 -16.63816544 29.72958667 -24.09765625 25.05078125 C-33.81821644 20.16850894 -45.24125814 20.64747843 -53.6875 27.75 Z " fill="#00DBFE" transform="translate(422.6875,545.25)"/>
<path d="M0 0 C5.36069922 7.31004439 5.36069922 7.31004439 4.7734375 12.23828125 C4.62132812 13.08777344 4.46921875 13.93726563 4.3125 14.8125 C3.77872465 18.47992061 3.77872465 18.47992061 5.296875 21.7265625 C6.49519373 22.88776516 7.73635206 24.00602047 9.01171875 25.08203125 C11.21236777 26.93895985 13.00802484 28.93572597 14.875 31.125 C18.10514274 35.27163292 18.10514274 35.27163292 22.6875 37.375 C27.89056489 36.50782252 30.37864522 33.42340716 34.0625 29.8125 C35.1200119 28.86971498 36.18007643 27.92978821 37.2421875 26.9921875 C43.18961388 21.95049855 43.18961388 21.95049855 46.72265625 15.28515625 C46.66550163 13.01408197 46.66550163 13.01408197 46.3046875 10.84375 C45.88027534 7.28416414 47.34269189 4.83699013 49.0625 1.8125 C53.91153903 -2.6817313 57.05605956 -3.54878494 63.51953125 -3.46484375 C67.29341373 -3.05325288 69.30257187 -1.74548217 72.0625 0.8125 C74.59709996 4.48329994 75.07680334 7.04841637 75.03125 11.36328125 C75.70578868 18.66401377 80.65049349 22.56893877 85.75 27.375 C86.64912109 28.27541016 87.54824219 29.17582031 88.47460938 30.10351562 C94.27132882 35.95748599 94.27132882 35.95748599 102.0625 37.8125 C104.68473862 36.32821399 106.9272265 34.9477735 109.0625 32.8125 C109.19491142 31.08526658 109.29326852 29.35537222 109.375 27.625 C109.80799741 22.64229843 110.51357438 19.54821118 114.0625 15.8125 C118.44356741 13.37857366 122.07019883 11.99743042 127.0625 12.8125 C131.74602431 14.74311307 135.13022618 16.98267359 137.125 21.75 C138.18606215 25.42237745 138.26646658 28.12033582 137.0625 31.8125 C134.87205334 35.66466482 132.85265034 38.4996393 129.0625 40.8125 C126.19558768 41.2026958 123.41438544 41.25046477 120.5234375 41.30859375 C119.30527344 41.55802734 119.30527344 41.55802734 118.0625 41.8125 C116.78536825 43.68445878 116.78536825 43.68445878 116.0625 45.8125 C115.0725 46.8025 115.0725 46.8025 114.0625 47.8125 C112.9753361 51.81194893 112.9753361 51.81194893 113.0625 55.8125 C114.43770058 57.73862191 115.88407892 59.09296754 117.71484375 60.5859375 C118.38193359 61.19308594 118.38193359 61.19308594 119.0625 61.8125 C119.0625 62.4725 119.0625 63.1325 119.0625 63.8125 C119.7225 63.8125 120.3825 63.8125 121.0625 63.8125 C121.0625 64.4725 121.0625 65.1325 121.0625 65.8125 C121.7225 65.8125 122.3825 65.8125 123.0625 65.8125 C124.88979049 67.74780766 126.53145378 69.80297623 128.2109375 71.8671875 C130.13156281 73.88505966 131.44844925 74.88525181 134.0625 75.8125 C136.38731051 75.90491885 136.38731051 75.90491885 138.8125 75.6875 C144.04957835 75.61025696 147.95121827 76.44958522 152.0625 79.8125 C155.64436262 84.29488741 156.68030678 89.05238564 156.37890625 94.7109375 C155.66154419 99.47563859 153.61147629 102.52626697 150.0625 105.625 C145.58892942 108.88697855 141.49771654 109.53186689 136.0625 108.8125 C130.53019868 106.76019467 126.68883514 103.06517027 124.0625 97.8125 C124.20429687 97.12800781 124.34609375 96.44351563 124.4921875 95.73828125 C125.0820405 92.27677551 125.03758494 90.22926104 124.0625 86.8125 C120.20641898 81.68388659 115.25871776 77.44397141 110.43945312 73.24194336 C109.0625 71.8125 109.0625 71.8125 109.0625 69.8125 C108.4025 69.8125 107.7425 69.8125 107.0625 69.8125 C107.0625 69.1525 107.0625 68.4925 107.0625 67.8125 C101.65759994 67.02050878 97.01702096 66.63677274 92.21337891 69.52636719 C89.42228755 71.94739454 86.89677191 74.48765308 84.375 77.1875 C83.48361328 78.05761719 82.59222656 78.92773438 81.67382812 79.82421875 C77.54863916 84.07212501 74.62048149 87.21947427 74.09375 93.26171875 C74.10599609 94.05408936 74.11824219 94.84645996 74.13085938 95.6628418 C73.99353424 99.98122677 71.16445786 102.6711865 68.3125 105.625 C65.00056752 107.37296437 61.76304127 107.9198658 58.0625 107.8125 C53.20878608 106.19459536 49.49176469 103.3661419 47.0625 98.8125 C46.55276268 96.53674361 46.319294 94.38612258 46.203125 92.05859375 C45.84787154 86.38440662 44.75185375 84.04415784 40.5 80.125 C38.98828436 78.72176941 37.50050494 77.29117578 36.0625 75.8125 C36.0625 75.1525 36.0625 74.4925 36.0625 73.8125 C35.4025 73.8125 34.7425 73.8125 34.0625 73.8125 C32.4375 72.4375 32.4375 72.4375 31.0625 70.8125 C31.0625 70.1525 31.0625 69.4925 31.0625 68.8125 C27.15186776 67.34202664 27.15186776 67.34202664 23.0625 66.8125 C22.83949219 67.46089844 22.61648438 68.10929687 22.38671875 68.77734375 C20.24401452 73.6884977 17.28756726 78.136683 14.43164062 82.66210938 C13.98626953 83.39365234 13.54089844 84.12519531 13.08203125 84.87890625 C12.46485229 85.8680603 12.46485229 85.8680603 11.83520508 86.87719727 C10.85821361 89.32415187 11.12187445 90.3813024 12.0625 92.8125 C13.0525 94.2975 13.0525 94.2975 14.0625 95.8125 C14.83225995 100.04617973 14.99115216 104.11048868 12.89453125 107.953125 C10.13108533 111.33461667 7.45779221 113.99477122 3.0625 114.8125 C-1.35282553 114.86093136 -4.87630753 114.36616564 -8.8125 112.3125 C-12.67625322 107.76690797 -13.9375 102.97357079 -13.9375 97.0625 C-12.46041791 92.26198322 -9.82771199 89.83617113 -5.45581055 87.46850586 C-2.59724071 85.58875024 -1.53909534 84.0398764 0.10546875 81.06640625 C0.62173828 80.14666016 1.13800781 79.22691406 1.66992188 78.27929688 C2.19134766 77.32087891 2.71277344 76.36246094 3.25 75.375 C3.78302734 74.42044922 4.31605469 73.46589844 4.86523438 72.48242188 C7.00919469 68.62868691 9.11405651 64.76922511 11.0625 60.8125 C7.11076875 61.93097904 3.15978309 63.0520499 -0.79052734 64.17553711 C-2.13472535 64.55743736 -3.47912563 64.93862641 -4.82373047 65.3190918 C-6.7554125 65.86580771 -8.68631181 66.41528682 -10.6171875 66.96484375 C-11.77976074 67.29476318 -12.94233398 67.62468262 -14.14013672 67.96459961 C-18.43194075 69.24045528 -18.43194075 69.24045528 -20.8125 73.1875 C-21.11929687 73.79335937 -21.42609375 74.39921875 -21.7421875 75.0234375 C-23.25184911 77.28299638 -24.58135011 78.44321918 -26.9375 79.8125 C-32.23794261 80.62178353 -37.25778551 80.73805696 -42 78.125 C-45.94678848 73.41431698 -47.50926437 70.27362473 -47.29296875 64.09375 C-46.58176232 59.5295241 -44.32614274 56.35543638 -41.25 52.9375 C-37.56423335 51.14442433 -34.03018355 50.54867412 -29.9375 50.8125 C-27.82497696 51.6963511 -26.03616362 52.70140308 -24.15234375 54 C-17.34071082 56.49880009 -8.47429227 52.31575726 -1.9375 50.25 C-0.87660156 49.92064453 0.18429687 49.59128906 1.27734375 49.25195312 C3.87432844 48.44478221 6.46923007 47.63151131 9.0625 46.8125 C2.27357728 36.25891021 2.27357728 36.25891021 -7.90625 30.23046875 C-9.99195147 30.11947226 -12.07973875 30.04202727 -14.16796875 30 C-18.03824197 29.73797868 -20.05725192 28.34149832 -22.9375 25.8125 C-23.88625 25.049375 -24.835 24.28625 -25.8125 23.5 C-28.51153057 20.08652017 -28.35358424 18.05655927 -27.9375 13.8125 C-28.5975 13.4825 -29.2575 13.1525 -29.9375 12.8125 C-29.2775 12.8125 -28.6175 12.8125 -27.9375 12.8125 C-27.855 11.78125 -27.7725 10.75 -27.6875 9.6875 C-26.67245274 4.44308918 -24.80453185 1.20080573 -20.5 -2 C-13.5606547 -5.21579416 -6.15093687 -4.5804849 0 0 Z M-14.9375 9.8125 C-15.59305119 12.33983235 -15.59305119 12.33983235 -15.9375 14.8125 C-13.58311267 16.24194945 -12.45717567 16.89911261 -9.6875 16.4375 C-9.11 16.23125 -8.5325 16.025 -7.9375 15.8125 C-7.9375 13.8325 -7.9375 11.8525 -7.9375 9.8125 C-11.52077753 8.81032936 -11.52077753 8.81032936 -14.9375 9.8125 Z M51.0625 30.8125 C51.0625 31.4725 51.0625 32.1325 51.0625 32.8125 C50.4025 32.8125 49.7425 32.8125 49.0625 32.8125 C47.37517723 34.79510426 45.70883943 36.7957342 44.0625 38.8125 C43.0725 39.3075 43.0725 39.3075 42.0625 39.8125 C42.0625 40.4725 42.0625 41.1325 42.0625 41.8125 C41.4025 41.8125 40.7425 41.8125 40.0625 41.8125 C37.91622887 44.01086509 37.12031091 45.41822957 36.671875 48.4765625 C37.10700965 57.63856429 40.56327126 61.67325848 47.0625 67.8125 C48.35414063 69.20275391 48.35414063 69.20275391 49.671875 70.62109375 C54.16948944 75.70708236 54.16948944 75.70708236 60.05078125 78.77734375 C67.00310816 78.85849932 72.02701967 72.35368475 76.6875 67.8125 C77.450625 67.10738281 78.21375 66.40226562 79 65.67578125 C84.54995357 60.25240556 86.74197655 55.43981496 88.0625 47.8125 C84.91622386 44.51763489 81.7505264 41.24319374 78.56542969 37.98583984 C77.48535324 36.87563529 76.41072854 35.76009921 75.34179688 34.63916016 C73.80188682 33.02626179 72.24321733 31.4337208 70.6796875 29.84375 C70.20755829 29.34065308 69.73542908 28.83755615 69.24899292 28.31921387 C66.7553564 25.82312078 65.39671473 24.85002373 61.84423828 24.45117188 C56.92193832 25.09054382 54.31374859 27.09678732 51.0625 30.8125 Z M139.0625 86.8125 C138.0725 87.4725 137.0825 88.1325 136.0625 88.8125 C135.8122843 91.89615871 135.8122843 91.89615871 136.0625 94.8125 C138.5375 95.8025 138.5375 95.8025 141.0625 96.8125 C142.72871425 95.6479799 142.72871425 95.6479799 144.0625 93.8125 C144.14274658 91.21360217 144.14274658 91.21360217 143.0625 88.8125 C141.09491727 87.45229849 141.09491727 87.45229849 139.0625 86.8125 Z " fill="#00DCFE" transform="translate(461.9375,144.1875)"/>
<path d="M0 0 C1.50046875 0.00386719 1.50046875 0.00386719 3.03125 0.0078125 C4.0315625 0.00523437 5.031875 0.00265625 6.0625 0 C8.53125 0.1328125 8.53125 0.1328125 9.53125 1.1328125 C9.61976529 3.72640572 9.64650945 6.29320941 9.62890625 8.88671875 C9.6274913 9.66216537 9.62607635 10.437612 9.62461853 11.23655701 C9.61900345 13.72284744 9.60644846 16.2090491 9.59375 18.6953125 C9.58873694 20.37695183 9.5841737 22.05859256 9.58007812 23.74023438 C9.56987832 27.87115579 9.55030605 32.00188432 9.53125 36.1328125 C14.81125 36.1328125 20.09125 36.1328125 25.53125 36.1328125 C25.53125 87.6128125 25.53125 139.0928125 25.53125 192.1328125 C17.53125 193.1328125 17.53125 193.1328125 9.53125 192.1328125 C9.53125 208.3028125 9.53125 224.4728125 9.53125 241.1328125 C5.57125 241.4628125 1.61125 241.7928125 -2.46875 242.1328125 C-4.03310261 240.56845989 -3.62439591 239.0190154 -3.65820312 236.84423828 C-3.67492065 235.9330423 -3.69163818 235.02184631 -3.7088623 234.08303833 C-3.72243774 233.09141693 -3.73601318 232.09979553 -3.75 231.078125 C-3.76840942 230.0656369 -3.78681885 229.0531488 -3.80578613 228.00997925 C-3.8647417 224.75931805 -3.91745453 221.50860307 -3.96875 218.2578125 C-4.03632104 213.98946984 -4.11004092 209.72129832 -4.1875 205.453125 C-4.20107544 204.46555206 -4.21465088 203.47797913 -4.2286377 202.46047974 C-4.24535522 201.54297943 -4.26207275 200.62547913 -4.27929688 199.68017578 C-4.29182495 198.87266876 -4.30435303 198.06516174 -4.31726074 197.23318481 C-4.3956778 194.94009244 -4.3956778 194.94009244 -5.46875 192.1328125 C-6.39558594 192.21660156 -7.32242188 192.30039062 -8.27734375 192.38671875 C-9.47488281 192.48855469 -10.67242188 192.59039063 -11.90625 192.6953125 C-13.10121094 192.79972656 -14.29617188 192.90414062 -15.52734375 193.01171875 C-16.49800781 193.05167969 -17.46867188 193.09164062 -18.46875 193.1328125 C-21.41723553 190.18432697 -19.95566268 180.1474012 -20.05859375 175.8515625 C-20.09113912 174.5532827 -20.09113912 174.5532827 -20.12434196 173.22877502 C-20.74661454 147.35941856 -20.35668732 121.48480761 -20.07385254 95.61303711 C-20.00892863 89.54739507 -19.95062406 83.48169278 -19.89231598 77.41598415 C-19.75986068 63.65483147 -19.61749792 49.8937979 -19.46875 36.1328125 C-14.18875 36.1328125 -8.90875 36.1328125 -3.46875 36.1328125 C-3.48035156 33.61785156 -3.49195313 31.10289062 -3.50390625 28.51171875 C-3.51169673 26.0858574 -3.51777354 23.65999743 -3.52368164 21.23413086 C-3.5287219 19.54336934 -3.53555405 17.85261221 -3.54418945 16.16186523 C-3.55626857 13.73680543 -3.56198123 11.31180306 -3.56640625 8.88671875 C-3.57156754 8.12629776 -3.57672882 7.36587677 -3.58204651 6.58241272 C-3.58224238 4.7654868 -3.53072277 2.94868123 -3.46875 1.1328125 C-2.46875 0.1328125 -2.46875 0.1328125 0 0 Z " fill="#00DAFE" transform="translate(702.46875,338.8671875)"/>
<path d="M0 0 C0.33 0.66 0.66 1.32 1 2 C1.99 2.33 2.98 2.66 4 3 C5.75669167 5.07162488 7.39038235 7.13241492 9 9.3125 C9.43828125 9.89451172 9.8765625 10.47652344 10.328125 11.07617188 C11.55864168 12.71253667 12.7796016 14.35607518 14 16 C14.598125 16.75667969 15.19625 17.51335937 15.8125 18.29296875 C17 20 17 20 17 22 C16.35155624 21.99333817 15.70311249 21.98667633 15.03501892 21.97981262 C8.27022268 21.91330859 1.50551973 21.86813674 -5.25952148 21.83520508 C-7.78234633 21.82014295 -10.3051451 21.79968923 -12.82788086 21.77368164 C-16.45953824 21.73718617 -20.09084858 21.7202474 -23.72265625 21.70703125 C-24.84583755 21.69154739 -25.96901886 21.67606354 -27.12623596 21.66011047 C-33.26173775 21.65879961 -37.56249471 22.12463665 -43 25 C-44.485 25.495 -44.485 25.495 -46 26 C-47.08431094 27.74867483 -47.08431094 27.74867483 -48 30 C-48.515625 30.845625 -49.03125 31.69125 -49.5625 32.5625 C-52.66687219 39.9859987 -52.65374138 47.27324632 -50.015625 54.83984375 C-47.72708089 59.70740104 -43.74102938 62.68730274 -39 65 C-26.92916882 67.45451442 -13.90474429 65.85828451 -1.68286133 65.35595703 C4.55166822 65.10361237 10.76034461 64.94695298 17 65 C7.6 84.4 7.6 84.4 4 88 C2.33116734 88.16289709 0.65578995 88.25931051 -1.01953125 88.32885742 C-2.09154785 88.37527878 -3.16356445 88.42170013 -4.26806641 88.4695282 C-5.43772949 88.51438858 -6.60739258 88.55924896 -7.8125 88.60546875 C-9.01052246 88.65318924 -10.20854492 88.70090973 -11.44287109 88.75007629 C-13.98834249 88.84928904 -16.53392125 88.94577784 -19.07958984 89.03979492 C-22.95598027 89.18584152 -26.83137773 89.34936551 -30.70703125 89.51367188 C-33.17964647 89.60785424 -35.65230197 89.70098612 -38.125 89.79296875 C-39.85520386 89.86936836 -39.85520386 89.86936836 -41.62036133 89.9473114 C-50.57256538 90.24890352 -58.27842847 89.94596512 -65.625 84.375 C-66.48351562 83.74335938 -67.34203125 83.11171875 -68.2265625 82.4609375 C-71 80 -71 80 -72.40122986 78.03713989 C-74.74839458 74.81301227 -76.58383224 72.39693426 -80.51696777 71.29452515 C-83.50888508 71.07600953 -86.40482605 71.09924628 -89.40234375 71.21875 C-91.0188961 71.23572937 -91.0188961 71.23572937 -92.66810608 71.25305176 C-96.09308483 71.29765483 -99.51379796 71.39799384 -102.9375 71.5 C-105.26621536 71.54014747 -107.59499669 71.57664601 -109.92382812 71.609375 C-115.61732824 71.69733627 -121.3083594 71.83101108 -127 72 C-128.58741549 68.82516901 -126.98016161 66.32165878 -126 63 C-122.93481856 46.1415021 -127.45827328 32.30384166 -136 18 C-136.66 18 -137.32 18 -138 18 C-138 17.01 -138 16.02 -138 15 C-135 14 -135 14 -132 15 C-130.21800766 15.12751109 -128.43183934 15.19988753 -126.64575195 15.24047852 C-125.55063797 15.26622452 -124.45552399 15.29197052 -123.32722473 15.3184967 C-118.31405269 15.40287904 -113.30102351 15.46852446 -108.28735352 15.51489258 C-105.64615895 15.54652656 -103.00510626 15.59427328 -100.36450195 15.65844727 C-96.55105311 15.74984023 -92.740161 15.78853407 -88.92578125 15.81640625 C-87.75155106 15.85455948 -86.57732086 15.89271271 -85.36750793 15.93202209 C-79.08941744 15.95740928 -79.08941744 15.95740928 -73.58969116 13.26681519 C-71.48769514 11.19393486 -71.48769514 11.19393486 -69.76554871 9.00816345 C-66.19560232 4.9476491 -61.06199935 2.68733312 -56 1 C-53.08032796 0.90228428 -50.1852869 0.86010351 -47.265625 0.8671875 C-46.3954071 0.86623077 -45.52518921 0.86527405 -44.62860107 0.86428833 C-42.77925545 0.86360713 -40.92990745 0.86545722 -39.08056641 0.86962891 C-36.30235117 0.87490066 -33.52430342 0.86972261 -30.74609375 0.86328125 C-20.45265035 0.85981917 -10.25946178 1.13219582 0 2 C0 1.34 0 0.68 0 0 Z " fill="#00DBFE" transform="translate(586,274)"/>
<path d="M0 0 C7.84290279 -0.10232824 15.68563027 -0.17185119 23.52905273 -0.21972656 C26.19148591 -0.23742784 28.85303133 -0.26689782 31.51538086 -0.30175781 C53.31094071 -0.57977283 73.01523712 -0.25030741 89.86328125 15.5390625 C101.81022367 29.29879508 104.81355682 45.74505348 103.86865234 63.46289062 C102.65025464 78.20224197 97.65947109 94.1021985 86 104 C75.01891 112.30026051 64.26369268 115.32848796 50.8203125 116.60546875 C47.14699558 116.91340157 47.14699558 116.91340157 44.1796875 117.61328125 C42 118 42 118 39 117 C36.13460119 116.92661291 33.2941925 116.90824681 30.4296875 116.9375 C29.17443771 116.94317993 29.17443771 116.94317993 27.89382935 116.94897461 C25.22083411 116.96119587 22.54794641 116.97983407 19.875 117 C16.3515656 117.02647777 12.82818334 117.04651985 9.3046875 117.0625 C8.07974075 117.07494751 8.07974075 117.07494751 6.83004761 117.08764648 C4.88649761 117.09619472 2.94283557 117.05338194 1 117 C0 116 0 116 -0.12304783 114.06533718 C-0.12212604 113.21083508 -0.12120424 112.35633299 -0.12025452 111.47593689 C-0.12162918 110.49852036 -0.12300385 109.52110382 -0.12442017 108.5140686 C-0.12082489 107.43297821 -0.11722961 106.35188782 -0.11352539 105.23803711 C-0.11367142 104.1064769 -0.11381744 102.97491669 -0.1139679 101.80906677 C-0.11326819 98.04847329 -0.10547311 94.28792863 -0.09765625 90.52734375 C-0.09579227 87.92802457 -0.09436828 85.32870503 -0.09336853 82.72938538 C-0.08993341 76.57411423 -0.08204256 70.4188634 -0.07201904 64.26359993 C-0.06085694 57.25766654 -0.05534721 50.25173233 -0.05032361 43.24579227 C-0.03985992 28.83051867 -0.02226108 14.41525996 0 0 Z M23 22 C23 46.42 23 70.84 23 96 C46.93170126 97.47637284 46.93170126 97.47637284 68.125 88.08984375 C74.98730161 80.93740807 78.56648061 72.89555119 79 63 C79.03996094 62.23042969 79.07992187 61.46085938 79.12109375 60.66796875 C79.41619238 49.64516711 77.25309325 40.53153607 71.25 31.3125 C66.1157995 26.03568282 61.10330824 24.02951664 54 22 C43.77 22 33.54 22 23 22 Z " fill="#00DAFE" transform="translate(751,727)"/>
<path d="M0 0 C0.495 18.315 0.495 18.315 1 37 C5.95 37 10.9 37 16 37 C16.81096882 44.07179944 17.13521764 50.97604901 17.09765625 58.09008789 C17.09619598 59.14998428 17.09473572 60.20988068 17.0932312 61.30189514 C17.08944789 63.58585648 17.08335566 65.86981494 17.07516479 68.15376472 C17.0623186 71.77377536 17.05586466 75.39374903 17.05102539 79.01377869 C17.03963803 86.69670244 17.02039529 94.37959557 17 102.0625 C16.97635642 110.97348763 16.9559797 119.8844576 16.94406128 128.79546928 C16.9376052 132.35220076 16.92509914 135.90887775 16.91235352 139.46559143 C16.90871923 141.65682936 16.90536772 143.84806778 16.90234375 146.03930664 C16.89459427 147.5100766 16.89459427 147.5100766 16.88668823 149.01055908 C16.88630107 154.08226784 17.13043901 158.92249982 17.97999573 163.92830563 C18 166 18 166 16 171 C10.72 171 5.44 171 0 171 C0.185625 173.165625 0.37125 175.33125 0.5625 177.5625 C1.53835871 191.32784817 0.57549705 205.23113527 0 219 C-3.96 219 -7.92 219 -12 219 C-12.79110459 215.83558164 -13.1228119 213.75604536 -13.11352539 210.59863281 C-13.11344986 209.7380426 -13.11337433 208.87745239 -13.11329651 207.99078369 C-13.10555458 206.61089264 -13.10555458 206.61089264 -13.09765625 205.203125 C-13.0962413 204.25435486 -13.09482635 203.30558472 -13.09336853 202.32806396 C-13.08777742 199.30201038 -13.07522652 196.27603117 -13.0625 193.25 C-13.05748385 191.19661565 -13.05292115 189.14323014 -13.04882812 187.08984375 C-13.03781089 182.05986724 -13.02055233 177.02994622 -13 172 C-17.95 171.67 -22.9 171.34 -28 171 C-28.83148254 167.67406983 -29.1255302 165.37599853 -29.12698364 162.02388 C-29.12980347 161.0216893 -29.13262329 160.0194986 -29.13552856 158.98693848 C-29.13350433 157.89337036 -29.1314801 156.79980225 -29.12939453 155.6730957 C-29.13114685 154.51653976 -29.13289917 153.35998383 -29.13470459 152.16838074 C-29.13911253 148.33749906 -29.13618783 144.50666342 -29.1328125 140.67578125 C-29.13348607 138.01262861 -29.13445508 135.34947737 -29.13571167 132.68632507 C-29.13753108 127.09857688 -29.13513435 121.51084189 -29.13037109 115.9230957 C-29.12494222 109.4805022 -29.12668202 103.03794042 -29.1321975 96.5953477 C-29.13675105 91.05291897 -29.13736783 85.51049973 -29.13475883 79.96806973 C-29.13320665 76.66298042 -29.13337037 73.35790909 -29.13629532 70.05282021 C-29.13884514 66.35981761 -29.13494779 62.6668751 -29.12939453 58.97387695 C-29.13141876 57.89042999 -29.13344299 56.80698303 -29.13552856 55.69070435 C-29.11893837 49.71144941 -28.77751675 43.92982536 -28 38 C-27.00097656 37.95101562 -26.00195312 37.90203125 -24.97265625 37.8515625 C-23.68230469 37.77679688 -22.39195312 37.70203125 -21.0625 37.625 C-19.77472656 37.55539062 -18.48695313 37.48578125 -17.16015625 37.4140625 C-15.59587891 37.20910156 -15.59587891 37.20910156 -14 37 C-12.50016915 34.0003383 -12.76097945 30.88053039 -12.68359375 27.5859375 C-12.66281265 26.85629791 -12.64203156 26.12665833 -12.62062073 25.37490845 C-12.55518083 23.04170237 -12.49626632 20.70838279 -12.4375 18.375 C-12.39430947 16.79425905 -12.35069501 15.21352961 -12.30664062 13.6328125 C-12.19950519 9.75532496 -12.09822218 5.87772315 -12 2 C-12.66 1.67 -13.32 1.34 -14 1 C-9.81537205 -1.09231398 -4.67855628 0 0 0 Z " fill="#00DAFE" transform="translate(774,269)"/>
<path d="M0 0 C3.96 0 7.92 0 12 0 C13 1 13 1 13.11352539 4.14282227 C13.11336633 5.53402697 13.10767506 6.92523761 13.09765625 8.31640625 C13.0962413 9.04746078 13.09482635 9.77851532 13.09336853 10.53172302 C13.08775408 12.87535632 13.07519922 15.21889539 13.0625 17.5625 C13.05748686 19.14778508 13.05292363 20.73307166 13.04882812 22.31835938 C13.03777997 26.2122761 13.02050572 30.10612205 13 34 C14.10029541 33.83250244 15.20059082 33.66500488 16.33422852 33.49243164 C20.17643782 32.9762987 23.31396882 33.21270337 27.11157227 33.73852539 C28.04634399 33.86795532 28.04634399 33.86795532 29 34 C29.91110387 40.9591435 30.13727689 47.74818435 30.11352539 54.76196289 C30.11367142 55.90444489 30.11381744 57.04692688 30.1139679 58.22402954 C30.11327519 61.97359157 30.10551296 65.72310297 30.09765625 69.47265625 C30.09578979 72.08296176 30.09436696 74.69326762 30.09336853 77.30357361 C30.09027163 83.45503602 30.08208056 89.60648046 30.07201904 95.75793499 C30.06080669 102.76647217 30.05533459 109.77501026 30.05032361 116.7835542 C30.03989642 131.18904559 30.02212546 145.59452194 30 160 C24.72 160.33 19.44 160.66 14 161 C14 177.17 14 193.34 14 210 C9.38 210 4.76 210 0 210 C0 193.5 0 177 0 160 C-5.28 160 -10.56 160 -16 160 C-17.09824626 80.30412425 -17.09824626 80.30412425 -17.125 53.6875 C-17.12874634 52.37668961 -17.12874634 52.37668961 -17.13256836 51.03939819 C-17.13829187 48.65512784 -17.13710146 46.2709894 -17.1328125 43.88671875 C-17.13168457 42.61014404 -17.13055664 41.33356934 -17.12939453 40.01831055 C-17 37 -17 37 -16 34 C-11 33 -11 33 0 34 C0 22.78 0 11.56 0 0 Z " fill="#00DBFE" transform="translate(574,447)"/>
<path d="M0 0 C6.32710766 4.93786207 11.80606709 11.3445199 13.63671875 19.27734375 C14.13171875 24.72234375 14.13171875 24.72234375 14.63671875 30.27734375 C7.04671875 30.27734375 -0.54328125 30.27734375 -8.36328125 30.27734375 C-9.68328125 27.30734375 -11.00328125 24.33734375 -12.36328125 21.27734375 C-16.70984799 16.03917358 -20.52426029 14.42353207 -27.11328125 13.52734375 C-33.69967734 12.98827859 -38.95967314 14.00998674 -44.80078125 17.08984375 C-48.47607711 20.22729144 -49.15057113 22.57566281 -49.73828125 27.27734375 C-49.23265591 31.32234646 -48.44007924 32.55831297 -45.36328125 35.27734375 C-37.8627615 38.65093639 -29.9189029 40.44172169 -21.92578125 42.21484375 C4.3603677 48.34750855 4.3603677 48.34750855 13.0078125 60.1484375 C18.11757204 69.15134717 18.29386209 79.05833562 15.80078125 88.87890625 C12.42582649 98.73196208 6.81172639 105.38311729 -2.36328125 110.27734375 C-17.38875051 116.95306175 -36.81037006 117.95572206 -52.36328125 112.27734375 C-55.37452038 110.83375345 -58.25362298 109.29230313 -61.12109375 107.58203125 C-63.40864915 106.14899771 -63.40864915 106.14899771 -66.36328125 105.27734375 C-66.69328125 104.28734375 -67.02328125 103.29734375 -67.36328125 102.27734375 C-67.98976563 101.65859375 -68.61625 101.03984375 -69.26171875 100.40234375 C-75.7777236 93.8136697 -77.32786993 84.13242858 -78.36328125 75.27734375 C-75.80604896 73.9987276 -73.99591023 74.16397766 -71.13671875 74.1796875 C-69.58984375 74.18452148 -69.58984375 74.18452148 -68.01171875 74.18945312 C-66.39136719 74.20202148 -66.39136719 74.20202148 -64.73828125 74.21484375 C-63.10632813 74.22161133 -63.10632813 74.22161133 -61.44140625 74.22851562 C-58.74864336 74.24032599 -56.05598937 74.25679597 -53.36328125 74.27734375 C-53.15904541 74.89512695 -52.95480957 75.51291016 -52.74438477 76.14941406 C-52.47553467 76.95991211 -52.20668457 77.77041016 -51.9296875 78.60546875 C-51.66357666 79.40887695 -51.39746582 80.21228516 -51.12329102 81.04003906 C-49.37025466 86.20059966 -47.57105636 88.40369244 -42.80078125 91.02734375 C-33.96985168 95.08445197 -25.64419707 94.84121549 -16.36328125 92.27734375 C-13.11406276 90.72042656 -10.69628978 89.01193572 -8.36328125 86.27734375 C-7.12990685 82.10885054 -6.88654789 78.4315403 -8.55078125 74.40234375 C-12.14343838 70.19026298 -15.45384763 68.74950874 -20.80078125 67.40234375 C-21.7602063 67.15581055 -21.7602063 67.15581055 -22.73901367 66.90429688 C-26.70273514 65.89805308 -30.68277401 64.96779221 -34.66796875 64.05078125 C-35.58006104 63.83921387 -36.49215332 63.62764648 -37.43188477 63.40966797 C-39.21176438 62.99949907 -40.9934372 62.59700668 -42.77709961 62.20361328 C-53.52533778 59.74174362 -63.29748397 56.44422234 -69.8984375 47.10546875 C-75.1754124 38.1823042 -76.7214122 28.88447037 -74.2421875 18.7421875 C-70.00472365 6.85845555 -61.84185025 0.82391588 -51.05078125 -4.64453125 C-35.16414314 -11.01765933 -14.21578065 -9.80501433 0 0 Z " fill="#00DAFE" transform="translate(942.36328125,731.72265625)"/>
<path d="M0 0 C1.65322266 0.01740234 1.65322266 0.01740234 3.33984375 0.03515625 C4.44457031 0.04417969 5.54929687 0.05320312 6.6875 0.0625 C7.54214844 0.07410156 8.39679687 0.08570313 9.27734375 0.09765625 C10.2544664 3.37058049 10.40626567 6.33738878 10.41015625 9.74609375 C10.41208984 11.37804687 10.41208984 11.37804687 10.4140625 13.04296875 C10.41019531 14.17476563 10.40632812 15.3065625 10.40234375 16.47265625 C10.40814453 18.15875 10.40814453 18.15875 10.4140625 19.87890625 C10.41277344 20.96945312 10.41148437 22.06 10.41015625 23.18359375 C10.40902832 24.17407715 10.40790039 25.16456055 10.40673828 26.18505859 C10.27171455 29.22436644 9.83591549 32.10954706 9.27734375 35.09765625 C10.73614484 34.95657878 12.19437926 34.8096321 13.65234375 34.66015625 C14.46445312 34.57894531 15.2765625 34.49773437 16.11328125 34.4140625 C18.3200718 34.20675511 18.3200718 34.20675511 20.27734375 33.09765625 C21.92734375 33.42765625 23.57734375 33.75765625 25.27734375 34.09765625 C25.60734375 76.33765625 25.93734375 118.57765625 26.27734375 162.09765625 C22.58520453 163.02069105 19.79584421 163.20111821 16.02734375 163.16015625 C14.9496875 163.15113281 13.87203125 163.14210938 12.76171875 163.1328125 C11.941875 163.12121094 11.12203125 163.10960937 10.27734375 163.09765625 C10.28519897 164.99825806 10.28519897 164.99825806 10.29321289 166.93725586 C10.31125889 171.62051695 10.32277428 176.30377496 10.33227539 180.98706055 C10.33731653 183.01733923 10.34414932 185.04761427 10.3527832 187.07788086 C10.36485842 189.98942972 10.37057409 192.90093075 10.375 195.8125 C10.38016129 196.72603745 10.38532257 197.63957489 10.39064026 198.58079529 C10.39083543 200.75341052 10.3394618 202.92592921 10.27734375 205.09765625 C9.27734375 206.09765625 9.27734375 206.09765625 6.5546875 206.1953125 C4.90146484 206.17791016 4.90146484 206.17791016 3.21484375 206.16015625 C2.11011719 206.15113281 1.00539063 206.14210938 -0.1328125 206.1328125 C-1.41478516 206.11541016 -1.41478516 206.11541016 -2.72265625 206.09765625 C-3.87875332 203.78546212 -3.81350726 202.58034929 -3.74438477 200.01513672 C-3.72428848 199.1744162 -3.7041922 198.33369568 -3.68348694 197.46749878 C-3.64293434 196.10493454 -3.64293434 196.10493454 -3.6015625 194.71484375 C-3.57795151 193.78543976 -3.55434052 192.85603577 -3.53001404 191.89846802 C-3.45329535 188.92304519 -3.36930634 185.94787729 -3.28515625 182.97265625 C-3.23194378 180.95834591 -3.17920333 178.94402303 -3.12695312 176.9296875 C-2.99766909 171.98551493 -2.86186332 167.04155898 -2.72265625 162.09765625 C-3.62628906 162.16984375 -4.52992188 162.24203125 -5.4609375 162.31640625 C-6.64042969 162.40921875 -7.81992187 162.50203125 -9.03515625 162.59765625 C-10.20691406 162.69046875 -11.37867188 162.78328125 -12.5859375 162.87890625 C-14.62785025 163.02130614 -16.67578415 163.09765625 -18.72265625 163.09765625 C-18.72265625 120.85765625 -18.72265625 78.61765625 -18.72265625 35.09765625 C-15.31205076 34.24500488 -13.03174008 34.01564828 -9.59765625 34.09765625 C-6.01881756 34.25082112 -6.01881756 34.25082112 -2.72265625 33.09765625 C-2.75818604 32.13351807 -2.79371582 31.16937988 -2.83032227 30.17602539 C-2.96034172 26.61109313 -3.08362412 23.04595466 -3.20483398 19.48071289 C-3.25832245 17.93540035 -3.31365693 16.39015058 -3.37084961 14.8449707 C-3.45257058 12.62855574 -3.52772795 10.41200241 -3.6015625 8.1953125 C-3.62859756 7.50051285 -3.65563263 6.8057132 -3.68348694 6.08985901 C-3.73566733 4.42655849 -3.73450732 2.76173286 -3.72265625 1.09765625 C-2.72265625 0.09765625 -2.72265625 0.09765625 0 0 Z " fill="#00DBFE" transform="translate(639.72265625,403.90234375)"/>
<path d="M0 0 C2.55781522 3.83672283 2.25306456 6.94535987 2.1953125 11.38671875 C2.1924826 12.20372757 2.18965271 13.02073639 2.18673706 13.86250305 C2.17554541 16.47098459 2.1504429 19.0791223 2.125 21.6875 C2.11496888 23.45637525 2.10584326 25.22525588 2.09765625 26.99414062 C2.07560942 31.32955949 2.0410867 35.66472145 2 40 C2.54994629 39.58210205 3.09989258 39.1642041 3.66650391 38.73364258 C4.38757324 38.18861084 5.10864258 37.6435791 5.8515625 37.08203125 C6.56650879 36.5403833 7.28145508 35.99873535 8.01806641 35.44067383 C14.60632843 30.65164523 22.80123008 30.45960278 30.625 31.6875 C39.15208425 33.51559141 45.06912886 36.66532918 50 44 C53.19967594 50.28901823 54.09543496 56.09042074 54.22119141 63.08129883 C54.24436432 64.25884232 54.26753723 65.4363858 54.29141235 66.64961243 C54.3112619 67.90606064 54.33111145 69.16250885 54.3515625 70.45703125 C54.38629166 72.40508919 54.38629166 72.40508919 54.42172241 74.39250183 C54.46997407 77.13003552 54.51494211 79.8675985 54.55761719 82.60522461 C54.61272317 86.12055684 54.67652611 89.63566997 54.74279213 93.15080738 C54.80472036 96.50280505 54.85903853 99.85491307 54.9140625 103.20703125 C54.93796051 104.47360062 54.96185852 105.74016998 54.98648071 107.04512024 C55.0033493 108.20690292 55.0202179 109.36868561 55.03759766 110.56567383 C55.05456696 111.59348465 55.07153625 112.62129547 55.08901978 113.68025208 C55 116 55 116 54 117 C52.36527118 117.08700342 50.72685945 117.10701063 49.08984375 117.09765625 C48.10048828 117.09443359 47.11113281 117.09121094 46.09179688 117.08789062 C45.05087891 117.07951172 44.00996094 117.07113281 42.9375 117.0625 C41.89271484 117.05798828 40.84792969 117.05347656 39.77148438 117.04882812 C37.1809334 117.03699913 34.59049441 117.02051689 32 117 C32.00666183 116.11249557 32.00666183 116.11249557 32.01345825 115.20706177 C32.05794895 109.00948519 32.08797258 102.81195452 32.10986328 96.61425781 C32.11987684 94.30597081 32.13349163 91.99769636 32.15087891 89.68945312 C32.17533227 86.35804128 32.18652989 83.0267982 32.1953125 79.6953125 C32.20563507 78.67511017 32.21595764 77.65490784 32.22659302 76.60379028 C32.22774494 69.12883219 32.15020837 61.39871646 28.0625 54.9375 C24.17432448 51.28497148 19.79801166 51.66519605 14.73046875 51.71875 C10.88464557 52.11488629 8.81629923 53.39492321 6 56 C0.88054498 62.53171847 1.81113175 71.4987149 1.68359375 79.40234375 C1.66281265 80.48004532 1.64203156 81.55774689 1.62062073 82.66810608 C1.55553839 86.09117612 1.49643327 89.51431912 1.4375 92.9375 C1.39427545 95.26628341 1.35065993 97.5950596 1.30664062 99.92382812 C1.19916818 105.61581192 1.09978769 111.30785559 1 117 C-6.26 117 -13.52 117 -21 117 C-22.083876 93.22193559 -22.12307883 69.47699007 -22.06866455 45.67883301 C-22.0582444 40.62248159 -22.05382784 35.56612479 -22.04882812 30.50976562 C-22.03825603 20.67316344 -22.02129915 10.83658442 -22 1 C-18.37629339 0.74586877 -14.75131263 0.52594467 -11.125 0.3125 C-9.57619141 0.20325195 -9.57619141 0.20325195 -7.99609375 0.09179688 C-7.00996094 0.03701172 -6.02382813 -0.01777344 -5.0078125 -0.07421875 C-3.64100342 -0.16062622 -3.64100342 -0.16062622 -2.24658203 -0.2487793 C-1.50520996 -0.16668213 -0.76383789 -0.08458496 0 0 Z " fill="#00DAFE" transform="translate(321,725)"/>
<path d="M0 0 C9.42315474 7.97077859 15.99308483 18.35038381 17.125 30.75 C17.4078347 43.99609157 14.02500985 55.43943514 5.29296875 65.53125 C-4.11998661 75.164689 -14.37028937 80.00662143 -27.875 80.75 C-35.84753527 80.31114485 -42.87102927 78.56549644 -49.875 74.75 C-50.56207031 74.40195312 -51.24914062 74.05390625 -51.95703125 73.6953125 C-61.38677095 68.46658494 -67.57952116 58.41355175 -70.625 48.24609375 C-73.32429663 36.26796494 -72.30571096 24.27492926 -66.125 13.5 C-59.34505969 3.13067953 -51.18658411 -4.56008195 -38.89453125 -7.7734375 C-24.74594087 -10.00646211 -11.88845923 -8.57167901 0 0 Z M-45.17578125 20.8828125 C-50.24937659 26.45793566 -50.4780705 32.22624632 -50.28515625 39.5234375 C-49.55760213 45.24686323 -47.35651357 49.49111675 -43.08984375 53.375 C-36.18616373 58.53443815 -29.2232653 58.68550465 -20.875 57.75 C-14.58713146 55.38693887 -9.86963286 51.86404208 -6.875 45.75 C-3.53732915 36.57140517 -4.9965145 30.3553897 -8.875 21.75 C-9.535 21.75 -10.195 21.75 -10.875 21.75 C-11.060625 21.1725 -11.24625 20.595 -11.4375 20 C-13.56603247 16.66838396 -16.26448606 15.11683742 -19.875 13.75 C-30.33301672 11.44674632 -37.46527853 13.58131483 -45.17578125 20.8828125 Z " fill="#00DBFE" transform="translate(434.875,291.25)"/>
<path d="M0 0 C7.44129437 7.17340777 11.48945232 14.80380315 13 25 C13 30.61 13 36.22 13 42 C-5.81 42 -24.62 42 -44 42 C-40.95541509 52.65821708 -40.95541509 52.65821708 -33.25 58.8125 C-27.6026813 60.87594337 -22.91280732 60.56443495 -17.1875 58.875 C-13.77465425 57.26447544 -13.77465425 57.26447544 -12.50390625 53.90625 C-10 51 -10 51 -7.61987305 50.51220703 C-4.64325408 50.40872171 -1.72468421 50.47777578 1.25 50.625 C2.796875 50.66560547 2.796875 50.66560547 4.375 50.70703125 C6.9187875 50.77769201 9.45833099 50.87627922 12 51 C10.35529918 59.75898809 6.2959972 67.66047133 -1 73 C-9.4048897 77.5899043 -16.24215556 79.19464267 -25.6875 79.25 C-26.54794922 79.270625 -27.40839844 79.29125 -28.29492188 79.3125 C-39.52495559 79.38020179 -47.63312067 75.43145183 -56 68 C-65.66041686 56.90249634 -67.90066771 43.27967723 -67 29 C-65.11357077 16.99815102 -60.62270099 6.67505311 -51 -1 C-35.44162928 -12.01322871 -14.69386076 -13.17589994 0 0 Z M-41.375 16.875 C-43.46135274 20.30017502 -43.46135274 20.30017502 -43 26 C-31.78 26 -20.56 26 -9 26 C-11.1609037 16.82471943 -11.1609037 16.82471943 -17.765625 10.859375 C-26.79194796 7.38771232 -35.39939977 9.64137867 -41.375 16.875 Z " fill="#00DAFE" transform="translate(195,765)"/>
<path d="M0 0 C8.78240125 9.6564791 11.98862426 21.30989256 12.3125 34.0625 C11.9825 36.3725 11.6525 38.6825 11.3125 41.0625 C-7.4975 41.0625 -26.3075 41.0625 -45.6875 41.0625 C-43.46581685 50.75694132 -43.46581685 50.75694132 -36.93359375 57.0234375 C-30.7684824 59.65356328 -25.47157156 59.91187776 -19 57.9375 C-15.49887906 56.28895518 -15.49887906 56.28895518 -13.65625 52.96875 C-11.91952114 50.80758938 -11.06888779 50.14104992 -8.3190918 49.57470703 C-5.48313317 49.47213795 -2.70878325 49.53905467 0.125 49.6875 C1.59356445 49.72810547 1.59356445 49.72810547 3.09179688 49.76953125 C5.50096621 49.84004352 7.90558819 49.93851432 10.3125 50.0625 C8.51424921 59.61178766 4.82738985 65.55993984 -2.7578125 71.74609375 C-13.10265466 78.80320268 -24.59517325 79.01036073 -36.6875 78.0625 C-48.03380625 75.79064234 -56.37607217 68.71455704 -62.83984375 59.40234375 C-68.90242854 48.99300005 -69.83993146 34.62680568 -67.6875 23.0625 C-64.24814425 10.17598683 -57.74875201 1.360859 -46.3984375 -5.5625 C-31.68796454 -13.02371971 -12.44589917 -10.85589443 0 0 Z M-40.6875 13.0625 C-43.60584021 16.84022874 -44.74343696 20.3421848 -45.6875 25.0625 C-34.1375 25.0625 -22.5875 25.0625 -10.6875 25.0625 C-11.79280844 17.15420986 -11.79280844 17.15420986 -16.1875 12.5625 C-16.7959375 12.0984375 -17.404375 11.634375 -18.03125 11.15625 C-24.92950966 6.6007955 -34.51740335 8.04929647 -40.6875 13.0625 Z " fill="#00DAFE" transform="translate(647.6875,765.9375)"/>
<path d="M0 0 C6.40020473 6.76821651 9.32058963 16.17889587 9.30102539 25.33496094 C9.30091209 27.1063443 9.30091209 27.1063443 9.30079651 28.91351318 C9.29563522 30.18342102 9.29047394 31.45332886 9.28515625 32.76171875 C9.2837413 34.06562561 9.28232635 35.36953247 9.28086853 36.71295166 C9.27705867 40.1718743 9.26724151 43.63075466 9.25616455 47.08966064 C9.24591746 50.62226794 9.24136385 54.15488211 9.23632812 57.6875 C9.22561782 64.61330033 9.20803346 71.53906565 9.1875 78.46484375 C2.2575 78.46484375 -4.6725 78.46484375 -11.8125 78.46484375 C-12.77522591 74.61394012 -12.91317454 71.68662476 -12.875 67.7421875 C-12.86606882 66.39388114 -12.85728546 65.0455738 -12.84863281 63.69726562 C-12.84238892 62.99529053 -12.83614502 62.29331543 -12.82971191 61.57006836 C-12.75005539 51.53786529 -12.67980052 41.49094615 -13.0625 31.46484375 C-13.07667969 30.75062256 -13.09085937 30.03640137 -13.10546875 29.30053711 C-13.35288051 24.17478397 -14.73863958 19.59239155 -17.8125 15.46484375 C-22.7567519 12.42743197 -28.19600429 12.86334488 -33.8125 13.46484375 C-38.84964347 15.76248814 -40.82854426 18.3483263 -42.8125 23.46484375 C-43.62811868 26.87566856 -43.931573 30.01243376 -43.91015625 33.51464844 C-43.90520142 34.98076569 -43.90520142 34.98076569 -43.90014648 36.47650146 C-43.89184814 37.51937317 -43.8835498 38.56224487 -43.875 39.63671875 C-43.87121338 40.71487854 -43.86742676 41.79303833 -43.86352539 42.90386963 C-43.85132298 46.34090185 -43.83268087 49.77784966 -43.8125 53.21484375 C-43.78602631 57.75129961 -43.76598948 62.28771523 -43.75 66.82421875 C-43.74170166 67.87518738 -43.73340332 68.92615601 -43.72485352 70.00897217 C-43.71989868 71.45617645 -43.71989868 71.45617645 -43.71484375 72.93261719 C-43.70698853 74.21238434 -43.70698853 74.21238434 -43.69897461 75.51800537 C-43.8125 77.46484375 -43.8125 77.46484375 -44.8125 78.46484375 C-52.0725 78.46484375 -59.3325 78.46484375 -66.8125 78.46484375 C-66.8125 50.74484375 -66.8125 23.02484375 -66.8125 -5.53515625 C-56.4175 -6.03015625 -56.4175 -6.03015625 -45.8125 -6.53515625 C-43.76551586 -4.48817211 -44.11204307 -0.23104384 -43.8125 2.46484375 C-43.173125 1.72234375 -42.53375 0.97984375 -41.875 0.21484375 C-30.80334542 -10.85681083 -11.44517054 -9.69386211 0 0 Z " fill="#00DAFD" transform="translate(497.8125,763.53515625)"/>
<path d="M0 0 C28.38 0 56.76 0 86 0 C86.90238747 2.70716242 87.11851302 4.23776768 87.09765625 7.01171875 C87.09282227 8.14770508 87.09282227 8.14770508 87.08789062 9.30664062 C87.07532227 10.48516602 87.07532227 10.48516602 87.0625 11.6875 C87.05798828 12.48478516 87.05347656 13.28207031 87.04882812 14.10351562 C87.0370585 16.06904257 87.01912348 18.03453085 87 20 C82.39399257 20.73556012 77.97587142 21.13583245 73.3125 21.125 C72.21550781 21.12757813 71.11851563 21.13015625 69.98828125 21.1328125 C66.55424272 21.01845666 63.17273513 20.78428735 59.75073242 20.49169922 C58.13408943 20.35427811 58.13408943 20.35427811 56.48478699 20.21408081 C55.66480728 20.14343414 54.84482758 20.07278748 54 20 C54.00222061 21.1503624 54.00444122 22.30072479 54.00672913 23.48594666 C54.02695922 34.30200059 54.0419715 45.1180507 54.05181217 55.93411922 C54.05704134 61.49539411 54.06413958 67.05665379 54.07543945 72.61791992 C54.08626715 77.98007419 54.09227658 83.34221378 54.09487724 88.70437813 C54.09673171 90.75500278 54.10035272 92.8056266 54.10573006 94.85624504 C54.11293893 97.71790203 54.11399101 100.57949757 54.11352539 103.44116211 C54.11712067 104.29783478 54.12071594 105.15450745 54.12442017 106.03713989 C54.11405216 111.88594784 54.11405216 111.88594784 53 113 C51.36527118 113.08700342 49.72685945 113.10701063 48.08984375 113.09765625 C47.10048828 113.09443359 46.11113281 113.09121094 45.09179688 113.08789062 C44.05087891 113.07951172 43.00996094 113.07113281 41.9375 113.0625 C40.89271484 113.05798828 39.84792969 113.05347656 38.77148438 113.04882812 C36.1809334 113.03699913 33.59049441 113.02051689 31 113 C30.98969254 111.86216568 30.97938507 110.72433136 30.96876526 109.55201721 C30.87120863 98.85363589 30.76849186 88.15531505 30.66066074 77.4570322 C30.60538501 71.95632032 30.55195771 66.45560318 30.50268555 60.95483398 C30.45511042 55.65098717 30.40277037 50.34720724 30.34705925 45.04343987 C30.32660454 43.01516309 30.30789674 40.98686795 30.29092598 38.95855904 C30.26695068 36.12798516 30.23688713 33.29753895 30.20532227 30.46704102 C30.19668907 29.19605812 30.19668907 29.19605812 30.18788147 27.8993988 C30.49942903 24.14330256 30.49942903 24.14330256 29 21 C26.78144736 20.91216458 24.56011504 20.89305391 22.33984375 20.90234375 C21.67537735 20.9037587 21.01091095 20.90517365 20.3263092 20.90663147 C18.19666101 20.91224482 16.06711661 20.92479946 13.9375 20.9375 C12.49674631 20.94251329 11.05599097 20.94707649 9.61523438 20.95117188 C6.07678898 20.96221855 2.53840461 20.97949208 -1 21 C-1.0269501 18.06243881 -1.04681474 15.12512445 -1.0625 12.1875 C-1.07087891 11.35412109 -1.07925781 10.52074219 -1.08789062 9.66210938 C-1.09111328 8.85966797 -1.09433594 8.05722656 -1.09765625 7.23046875 C-1.10289307 6.49207764 -1.10812988 5.75368652 -1.11352539 4.99291992 C-1 3 -1 3 0 0 Z " fill="#00DBFD" transform="translate(54,729)"/>
<path d="M0 0 C0.495 0.99 0.495 0.99 1 2 C2.3921875 1.87625 2.3921875 1.87625 3.8125 1.75 C11.66367826 1.76592531 20.41407608 5.48407513 26 11 C31.23333477 17.4581578 35.26348459 24.50994091 35 33 C31.43860935 33.23303424 27.87917554 33.37461781 24.3125 33.5 C22.80139648 33.60054687 22.80139648 33.60054687 21.25976562 33.703125 C18.30720417 33.78108042 15.85924918 33.75359181 13 33 C10.54852668 30.65162909 9.14869053 28.18136108 8 25 C8 24.34 8 23.68 8 23 C0.29415139 20.92821478 -6.65714565 20.29619692 -14 24 C-15.27919024 25.86566884 -15.27919024 25.86566884 -16 28 C-16.7734375 29.7015625 -16.7734375 29.7015625 -17.5625 31.4375 C-21.16840385 41.40458808 -20.30133417 51.11054082 -17 61 C-16.71769531 61.8971875 -16.43539062 62.794375 -16.14453125 63.71875 C-14.40432573 67.1872825 -12.14471808 67.58684016 -8.640625 68.8515625 C-7.85171875 69.10679687 -7.0628125 69.36203125 -6.25 69.625 C-5.45078125 69.88539063 -4.6515625 70.14578125 -3.828125 70.4140625 C-3.22484375 70.60742188 -2.6215625 70.80078125 -2 71 C-2 70.34 -2 69.68 -2 69 C-1.113125 69.061875 -0.22625 69.12375 0.6875 69.1875 C4.56117924 68.96823514 6.03723879 68.49495681 9 66 C10.32 63.36 11.64 60.72 13 58 C20.26 58 27.52 58 35 58 C36 60 36 60 35.43359375 62.3203125 C31.65241718 72.96691947 26.2817679 80.69952823 16.07421875 86 C11.36367538 88.09805786 7.13801615 89.0977676 2.015625 89.31640625 C1.08105469 89.35830078 0.14648438 89.40019531 -0.81640625 89.44335938 C-1.78449219 89.48267578 -2.75257813 89.52199219 -3.75 89.5625 C-4.73355469 89.60568359 -5.71710938 89.64886719 -6.73046875 89.69335938 C-9.15351275 89.79922052 -11.5766554 89.90130171 -14 90 C-14 89.34 -14 88.68 -14 88 C-14.556875 87.85304688 -15.11375 87.70609375 -15.6875 87.5546875 C-26.21642117 84.46003837 -32.7536313 78.34733532 -38.1875 68.9453125 C-41.35000119 62.59705643 -42.2953709 56.00332579 -43 49 C-43.08507812 48.16597656 -43.17015625 47.33195313 -43.2578125 46.47265625 C-43.84846628 34.63989217 -39.74531001 21.94790898 -32 13 C-23.54249808 5.31019871 -15.33427747 1.95154875 -4.06640625 1.2109375 C-1.93889108 1.11697514 -1.93889108 1.11697514 0 0 Z " fill="#00DAFE" transform="translate(258,755)"/>
<path d="M0 0 C-0.33 6.93 -0.66 13.86 -1 21 C6.26 21 13.52 21 21 21 C21.9498286 24.79931441 22.13371462 27.79642034 22.125 31.6875 C22.12886719 33.42580078 22.12886719 33.42580078 22.1328125 35.19921875 C22 38 22 38 21 39 C19.51361008 39.15655027 18.02050873 39.25066943 16.52734375 39.31640625 C15.62822266 39.35830078 14.72910156 39.40019531 13.80273438 39.44335938 C12.38444336 39.50233398 12.38444336 39.50233398 10.9375 39.5625 C9.98810547 39.60568359 9.03871094 39.64886719 8.06054688 39.69335938 C5.70718647 39.79979276 3.35371646 39.90181008 1 40 C-0.5543704 43.1087408 -0.18391532 46.41079079 -0.203125 49.82421875 C-0.21167511 50.99365776 -0.21167511 50.99365776 -0.22039795 52.1867218 C-0.22985357 53.84020632 -0.23638416 55.49370973 -0.24023438 57.1472168 C-0.24989557 59.66033585 -0.28089398 62.1726214 -0.3125 64.68554688 C-0.31903474 66.29426599 -0.32428336 67.90299095 -0.328125 69.51171875 C-0.3404718 70.2567717 -0.3528186 71.00182465 -0.36553955 71.76945496 C-0.3440643 76.87699655 0.52413679 80.49681528 3 85 C6.76491167 86.25497056 10.27206475 86.10661648 14.1875 86.0625 C18.0546875 86.0315625 18.0546875 86.0315625 22 86 C22 92.27 22 98.54 22 105 C11.15967273 107.40896162 -0.52456957 109.30392393 -10.94921875 104.328125 C-17.3711355 100.16916939 -20.8434034 93.92982693 -22.56712341 86.5827179 C-22.98373495 84.09704393 -23.12061561 81.81854041 -23.11352539 79.30151367 C-23.11344986 78.40095749 -23.11337433 77.50040131 -23.11329651 76.57255554 C-23.10813522 75.6140419 -23.10297394 74.65552826 -23.09765625 73.66796875 C-23.0962413 72.67622147 -23.09482635 71.68447418 -23.09336853 70.66267395 C-23.08778418 67.50425157 -23.07523452 64.34590085 -23.0625 61.1875 C-23.05748298 59.04231873 -23.05292042 56.89713635 -23.04882812 54.75195312 C-23.03781988 49.50127776 -23.0210973 44.250644 -23 39 C-24.5159375 39.2784375 -24.5159375 39.2784375 -26.0625 39.5625 C-30 40 -30 40 -37 39 C-37 33.72 -37 28.44 -37 23 C-37.66 22.67 -38.32 22.34 -39 22 C-34.53794887 19.76897444 -27.78092876 20.95653701 -23 21 C-23 14.07 -23 7.14 -23 0 C-19.761875 -0.185625 -16.52375 -0.37125 -13.1875 -0.5625 C-12.17067139 -0.62381104 -11.15384277 -0.68512207 -10.10620117 -0.74829102 C-9.30158447 -0.79139404 -8.49696777 -0.83449707 -7.66796875 -0.87890625 C-6.43469849 -0.94960327 -6.43469849 -0.94960327 -5.17651367 -1.02172852 C-3 -1 -3 -1 0 0 Z " fill="#00DAFD" transform="translate(551,737)"/>
<path d="M0 0 C3.47915977 -0.02769742 6.95826462 -0.04675685 10.4375 -0.0625 C11.92733398 -0.07506836 11.92733398 -0.07506836 13.44726562 -0.08789062 C14.39150391 -0.09111328 15.33574219 -0.09433594 16.30859375 -0.09765625 C17.62041626 -0.10551147 17.62041626 -0.10551147 18.95874023 -0.11352539 C21 0 21 0 22 1 C22.12533087 3.98223174 22.18611578 6.94241634 22.20532227 9.92602539 C22.21522186 10.86251419 22.22512146 11.79900299 22.23532104 12.76387024 C22.26703753 15.87510608 22.29173341 18.98635722 22.31640625 22.09765625 C22.33696703 24.24857492 22.35796325 26.39948946 22.37937927 28.55039978 C22.4346905 34.22377189 22.48405972 39.89718101 22.53222656 45.57061768 C22.58237567 51.35505484 22.63809606 57.13943796 22.69335938 62.92382812 C22.80105158 74.28250598 22.90247182 85.64123065 23 97 C26.63 97.33 30.26 97.66 34 98 C34 104.27 34 110.54 34 117 C25.99814788 118.60037042 16.35771605 119.63282291 8.68359375 116.18359375 C4.17751933 113.01575025 1.02537648 108.39047105 0 103 C-0.15260152 100.38672158 -0.25724996 97.79512237 -0.31640625 95.1796875 C-0.33727798 94.38841965 -0.35814972 93.59715179 -0.37965393 92.78190613 C-0.44648137 90.14637599 -0.50521447 87.51075396 -0.5625 84.875 C-0.58334656 83.96748993 -0.60419312 83.05997986 -0.62567139 82.12496948 C-0.98691768 66.10489805 -1.10708619 50.08633228 -1.125 34.0625 C-1.1275882 32.98764343 -1.13017639 31.91278687 -1.13284302 30.80535889 C-1.13873191 27.71525809 -1.13710878 24.62525798 -1.1328125 21.53515625 C-1.13479141 20.63145798 -1.13677032 19.7277597 -1.1388092 18.79667664 C-1.11617375 12.48652084 -0.65979374 6.27453031 0 0 Z " fill="#00DBFE" transform="translate(672,726)"/>
<path d="M0 0 C7.26 0 14.52 0 22 0 C22.97253701 12.94921245 23.13119004 25.79951576 23.09765625 38.78125 C23.09578655 40.93314582 23.09436526 43.08504207 23.09336853 45.23693848 C23.0895868 50.84602068 23.07979466 56.45507616 23.06866455 62.06414795 C23.05835599 67.80968871 23.05385086 73.55523387 23.04882812 79.30078125 C23.03816761 90.53386767 23.02060707 101.76692741 23 113 C15.41 113 7.82 113 0 113 C0 75.71 0 38.42 0 0 Z " fill="#00DAFD" transform="translate(392,729)"/>
<path d="M0 0 C6.66969615 3.97916055 11.7491938 10.05510916 13.6875 17.5625 C14.7236558 26.15713971 13.9840319 33.52167754 8.6875 40.5625 C1.62707588 47.40940322 -5.08118274 49.05666511 -14.7734375 48.96484375 C-19.77190453 48.39658536 -23.31264102 46.52535851 -27.3125 43.5625 C-27.3125 42.9025 -27.3125 42.2425 -27.3125 41.5625 C-27.9725 41.5625 -28.6325 41.5625 -29.3125 41.5625 C-34.36490667 33.21700684 -36.76647967 26.35434541 -35.3125 16.5625 C-33.48302518 9.47179041 -28.10896361 4.72656998 -22.3125 0.5625 C-15.7501057 -2.74014288 -6.76615799 -2.94005675 0 0 Z " fill="#00DBFE" transform="translate(293.3125,384.4375)"/>
<path d="M0 0 C3.47265956 3.03857712 5.18050369 5.56305002 5.9375 10.0625 C5.99886268 13.92834876 6.01439413 15.75945293 4 19 C0.58236582 22.34168675 -2.10358182 24.88057517 -7 25 C-11.37414474 24.29701245 -14.03353589 23.35884052 -16.875 20 C-20.01037586 15.57358702 -20.23188695 13.59136914 -19.5703125 8.32421875 C-18.43808793 3.71001589 -15.6765559 1.11770393 -11.75 -1.5 C-7.51394493 -2.27019183 -3.97322406 -1.62671854 0 0 Z " fill="#00DBFE" transform="translate(414,315)"/>
<path d="M0 0 C28.38 0 56.76 0 86 0 C83.47620123 2.52379877 81.9258419 2.23534328 78.48387146 2.24884033 C77.71495071 2.24164978 76.94602997 2.23445923 76.15380859 2.22705078 C75.34397018 2.22734283 74.53413177 2.22763489 73.69975281 2.22793579 C71.01587304 2.2265395 68.33226893 2.21096435 65.6484375 2.1953125 C63.79041699 2.19158343 61.93239452 2.18873596 60.07437134 2.18673706 C55.17853386 2.17909224 50.28281461 2.15943649 45.38702393 2.1373291 C40.39344889 2.11688893 35.39985479 2.10773926 30.40625 2.09765625 C20.60411466 2.07619138 10.80206715 2.04204522 1 2 C1.16298584 2.75176514 1.32597168 3.50353027 1.49389648 4.27807617 C2.12328466 7.66304906 2.09465579 10.87183095 2.0625 14.3125 C2.05347656 15.56675781 2.04445312 16.82101562 2.03515625 18.11328125 C2.01775391 19.54220703 2.01775391 19.54220703 2 21 C1.01 21 0.02 21 -1 21 C-1.0269501 18.06243881 -1.04681474 15.12512445 -1.0625 12.1875 C-1.07087891 11.35412109 -1.07925781 10.52074219 -1.08789062 9.66210938 C-1.09111328 8.85966797 -1.09433594 8.05722656 -1.09765625 7.23046875 C-1.10289307 6.49207764 -1.10812988 5.75368652 -1.11352539 4.99291992 C-1 3 -1 3 0 0 Z " fill="#06CEEE" transform="translate(54,729)"/>
<path d="M0 0 C0.33 0 0.66 0 1 0 C0.99666908 0.92841957 0.99666908 0.92841957 0.99327087 1.87559509 C0.97105531 8.3487795 0.95602579 14.82195297 0.94506836 21.29516602 C0.94005626 23.70727987 0.93324484 26.11939071 0.92456055 28.53149414 C0.91235777 32.00928493 0.90674032 35.48703537 0.90234375 38.96484375 C0.89718246 40.03395493 0.89202118 41.1030661 0.88670349 42.20457458 C0.88630726 47.55736641 1.07055983 52.68403307 1.97999573 57.96607971 C2 60 2 60 0 65 C-4.62 65 -9.24 65 -14 65 C-14 64.67 -14 64.34 -14 64 C-9.71 64 -5.42 64 -1 64 C-1.00523682 62.09677979 -1.01047363 60.19355957 -1.01586914 58.23266602 C-1.03196671 51.95820476 -1.04347225 45.68374838 -1.05181217 39.40927219 C-1.0570402 35.60348423 -1.06413638 31.79771852 -1.07543945 27.99194336 C-1.0862712 24.32207456 -1.09227744 20.65222722 -1.09487724 16.98234367 C-1.09673097 15.57925008 -1.1003506 14.17615771 -1.10573006 12.7730732 C-1.11294419 10.8143032 -1.11340809 8.8555118 -1.11352539 6.89672852 C-1.115746 5.77976089 -1.11796661 4.66279327 -1.12025452 3.51197815 C-1 1 -1 1 0 0 Z " fill="#01D2F5" transform="translate(790,375)"/>
<path d="M0 0 C2.34290892 2.48434437 2.97982934 3.77731593 3.29296875 7.234375 C3.25816406 8.39453125 3.22335938 9.5546875 3.1875 10.75 C3.16042969 11.92046875 3.13335937 13.0909375 3.10546875 14.296875 C3.07066406 15.18890625 3.03585938 16.0809375 3 17 C2.67 17 2.34 17 2 17 C0.4943096 11.19233704 -0.21824777 6.0018137 0 0 Z " fill="#05D5F4" transform="translate(105,824)"/>
<path d="M0 0 C6.27 0 12.54 0 19 0 C19 0.33 19 0.66 19 1 C18.01257813 1.06058594 17.02515625 1.12117187 16.0078125 1.18359375 C14.72648438 1.26738281 13.44515625 1.35117187 12.125 1.4375 C10.84882812 1.51871094 9.57265625 1.59992187 8.2578125 1.68359375 C5.11699848 1.79206027 5.11699848 1.79206027 3 3 C2.01 2.67 1.02 2.34 0 2 C0 1.34 0 0.68 0 0 Z " fill="#06D3F3" transform="translate(790,842)"/>
<path d="M0 0 C2.375 1.5 2.375 1.5 4 3 C-0.51617599 3.07654536 -4.59085217 3.10228696 -9 2 C-5.51131349 -0.32579101 -4.10281481 -0.41865457 0 0 Z " fill="#04D3F3" transform="translate(589,157)"/>
<path d="M0 0 C0 0.99 0 1.98 0 3 C-2.64 3.33 -5.28 3.66 -8 4 C-5.60490662 1.10067643 -3.68754757 0.49831724 0 0 Z " fill="#05D2F1" transform="translate(449,140)"/>
<path d="M0 0 C0.99 0.33 1.98 0.66 3 1 C1.68 1.33 0.36 1.66 -1 2 C-0.67 1.34 -0.34 0.68 0 0 Z " fill="#0CC7E6" transform="translate(557,845)"/>
<path d="M0 0 C3 1 3 1 3 1 Z " fill="#0CC6E1" transform="translate(924,847)"/>
<path d="M0 0 C0.66 0 1.32 0 2 0 C1.67 0.66 1.34 1.32 1 2 C0.67 1.34 0.34 0.68 0 0 Z " fill="#05DAF9" transform="translate(696,535)"/>
<path d="" fill="#0FC8EA" transform="translate(0,0)"/>
<path d="M0 0 C3 1 3 1 3 1 Z " fill="#09CFEC" transform="translate(261,352)"/>
<path d="M0 0 C3 1 3 1 3 1 Z " fill="#06D4F4" transform="translate(757,305)"/>
<path d="M0 0 C2 1 2 1 2 1 Z " fill="#11C7E4" transform="translate(494,843)"/>
<path d="M0 0 C2 1 2 1 2 1 Z " fill="#02DBFA" transform="translate(921,824)"/>
<path d="M0 0 C2 1 2 1 2 1 Z " fill="#04D8F8" transform="translate(913,824)"/>
<path d="" fill="#00DAFC" transform="translate(0,0)"/>
<path d="" fill="#01DAFD" transform="translate(0,0)"/>
<path d="" fill="#00DEFE" transform="translate(0,0)"/>
<path d="" fill="#07D1F2" transform="translate(0,0)"/>
<path d="M0 0 C2 1 2 1 2 1 Z " fill="#06D7F6" transform="translate(942,763)"/>
<path d="M0 0 C2 1 2 1 2 1 Z " fill="#01D9FA" transform="translate(457,760)"/>
<path d="" fill="#02DAF9" transform="translate(0,0)"/>
<path d="M0 0 C2 1 2 1 2 1 Z " fill="#00D9FB" transform="translate(779,750)"/>
<path d="M0 0 C2 1 2 1 2 1 Z " fill="#00D9F9" transform="translate(775,750)"/>
<path d="" fill="#0AD8F8" transform="translate(0,0)"/>
<path d="" fill="#05D2F6" transform="translate(0,0)"/>
<path d="" fill="#01DBFD" transform="translate(0,0)"/>
<path d="M0 0 C2 1 2 1 2 1 Z " fill="#0AD0F1" transform="translate(338,312)"/>
<path d="M0 0 C2 1 2 1 2 1 Z " fill="#03DCFB" transform="translate(501,288)"/>
<path d="M0 0 C2 1 2 1 2 1 Z " fill="#05DCFB" transform="translate(489,288)"/>
<path d="M0 0 C2 1 2 1 2 1 Z " fill="#02D9F9" transform="translate(444,214)"/>
<path d="" fill="#03DCFE" transform="translate(0,0)"/>
<path d="" fill="#0FBFDF" transform="translate(0,0)"/>
<path d="" fill="#0FC0DC" transform="translate(0,0)"/>
<path d="" fill="#0EC4E2" transform="translate(0,0)"/>
<path d="" fill="#0FC5E1" transform="translate(0,0)"/>
<path d="" fill="#0BC7E6" transform="translate(0,0)"/>
<path d="" fill="#0DC7E5" transform="translate(0,0)"/>
<path d="" fill="#0ACAE8" transform="translate(0,0)"/>
<path d="" fill="#0CC9E5" transform="translate(0,0)"/>
<path d="" fill="#0DC8E3" transform="translate(0,0)"/>
<path d="" fill="#0EC5E5" transform="translate(0,0)"/>
<path d="" fill="#0FCBEB" transform="translate(0,0)"/>
<path d="" fill="#0DCEEB" transform="translate(0,0)"/>
<path d="" fill="#10C7E4" transform="translate(0,0)"/>
<path d="" fill="#10C8E3" transform="translate(0,0)"/>
<path d="" fill="#11C7E6" transform="translate(0,0)"/>
<path d="" fill="#0FC9E7" transform="translate(0,0)"/>
<path d="" fill="#0FCBE7" transform="translate(0,0)"/>
<path d="" fill="#10C5E3" transform="translate(0,0)"/>
<path d="" fill="#10C9E4" transform="translate(0,0)"/>
<path d="" fill="#10C6E4" transform="translate(0,0)"/>
<path d="" fill="#11C9E2" transform="translate(0,0)"/>
<path d="" fill="#11C9E4" transform="translate(0,0)"/>
<path d="" fill="#15C7E1" transform="translate(0,0)"/>
<path d="" fill="#16C0DA" transform="translate(0,0)"/>
<path d="" fill="#12BEDA" transform="translate(0,0)"/>
<path d="" fill="#17B4D1" transform="translate(0,0)"/>
<path d="" fill="#0ECAEB" transform="translate(0,0)"/>
<path d="" fill="#08D0EE" transform="translate(0,0)"/>
<path d="" fill="#0DD0EE" transform="translate(0,0)"/>
<path d="" fill="#13BAD5" transform="translate(0,0)"/>
<path d="" fill="#0CCBEA" transform="translate(0,0)"/>
<path d="" fill="#0CC7E9" transform="translate(0,0)"/>
<path d="" fill="#0ACEEC" transform="translate(0,0)"/>
<path d="" fill="#11BBD9" transform="translate(0,0)"/>
<path d="" fill="#0BD1F1" transform="translate(0,0)"/>
<path d="" fill="#0CCDEF" transform="translate(0,0)"/>
<path d="" fill="#0ACDEC" transform="translate(0,0)"/>
<path d="" fill="#0BCEED" transform="translate(0,0)"/>
<path d="" fill="#0BCCEE" transform="translate(0,0)"/>
<path d="" fill="#06D5F5" transform="translate(0,0)"/>
<path d="" fill="#0FC2E3" transform="translate(0,0)"/>
<path d="" fill="#05D5F4" transform="translate(0,0)"/>
<path d="" fill="#05D6F4" transform="translate(0,0)"/>
<path d="" fill="#09D2F3" transform="translate(0,0)"/>
<path d="" fill="#0BC8E4" transform="translate(0,0)"/>
<path d="" fill="#02D9FC" transform="translate(0,0)"/>
<path d="" fill="#0DC5E8" transform="translate(0,0)"/>
<path d="" fill="#02D9F9" transform="translate(0,0)"/>
<path d="" fill="#06DDFA" transform="translate(0,0)"/>
<path d="" fill="#03D3F6" transform="translate(0,0)"/>
<path d="" fill="#02D8FA" transform="translate(0,0)"/>
<path d="" fill="#0BC9EC" transform="translate(0,0)"/>
<path d="" fill="#08DBFB" transform="translate(0,0)"/>
<path d="" fill="#03DCFB" transform="translate(0,0)"/>
<path d="" fill="#01DBFD" transform="translate(0,0)"/>
<path d="" fill="#09CCF0" transform="translate(0,0)"/>
<path d="" fill="#03E0FC" transform="translate(0,0)"/>
<path d="" fill="#01D7F9" transform="translate(0,0)"/>
<path d="" fill="#00DCFF" transform="translate(0,0)"/>
<path d="" fill="#05DBFC" transform="translate(0,0)"/>
<path d="" fill="#02D9FA" transform="translate(0,0)"/>
<path d="" fill="#06DBF8" transform="translate(0,0)"/>
<path d="" fill="#04DAFC" transform="translate(0,0)"/>
<path d="" fill="#01DBFB" transform="translate(0,0)"/>
<path d="" fill="#00DAFC" transform="translate(0,0)"/>
<path d="" fill="#03DBFD" transform="translate(0,0)"/>
<path d="" fill="#02E1FF" transform="translate(0,0)"/>
<path d="" fill="#01DCFD" transform="translate(0,0)"/>
<path d="" fill="#04DCFD" transform="translate(0,0)"/>
<path d="" fill="#04D8FA" transform="translate(0,0)"/>
<path d="" fill="#00DCFE" transform="translate(0,0)"/>
<path d="" fill="#00D7FA" transform="translate(0,0)"/>
<path d="" fill="#01DBFD" transform="translate(0,0)"/>
<path d="" fill="#02DCFE" transform="translate(0,0)"/>
<path d="" fill="#02DBFB" transform="translate(0,0)"/>
<path d="" fill="#05D5FA" transform="translate(0,0)"/>
<path d="" fill="#04D7FA" transform="translate(0,0)"/>
<path d="" fill="#03DAFA" transform="translate(0,0)"/>
<path d="" fill="#05DAFB" transform="translate(0,0)"/>
<path d="" fill="#04DAFA" transform="translate(0,0)"/>
<path d="" fill="#0BD5F5" transform="translate(0,0)"/>
<path d="" fill="#02D8FD" transform="translate(0,0)"/>
<path d="" fill="#00D9FD" transform="translate(0,0)"/>
<path d="" fill="#03D9F9" transform="translate(0,0)"/>
<path d="" fill="#0FD0EE" transform="translate(0,0)"/>
<path d="" fill="#0BD3F4" transform="translate(0,0)"/>
<path d="" fill="#0AD4F5" transform="translate(0,0)"/>
<path d="" fill="#06D8F9" transform="translate(0,0)"/>
<path d="" fill="#04D7F8" transform="translate(0,0)"/>
<path d="" fill="#04DAFA" transform="translate(0,0)"/>
<path d="" fill="#06D8FA" transform="translate(0,0)"/>
<path d="" fill="#02DCFF" transform="translate(0,0)"/>
<path d="" fill="#01DCFB" transform="translate(0,0)"/>
<path d="" fill="#13CBE5" transform="translate(0,0)"/>
<path d="" fill="#07D7FA" transform="translate(0,0)"/>
<path d="" fill="#04D9FB" transform="translate(0,0)"/>
<path d="" fill="#03DDFF" transform="translate(0,0)"/>
<path d="" fill="#05D8F8" transform="translate(0,0)"/>
<path d="" fill="#09D5F9" transform="translate(0,0)"/>
<path d="" fill="#06D8F7" transform="translate(0,0)"/>
<path d="" fill="#04D7F8" transform="translate(0,0)"/>
<path d="" fill="#04D9FC" transform="translate(0,0)"/>
<path d="" fill="#08D5F7" transform="translate(0,0)"/>
<path d="" fill="#06D9F9" transform="translate(0,0)"/>
<path d="" fill="#06DCFB" transform="translate(0,0)"/>
<path d="" fill="#02DCFA" transform="translate(0,0)"/>
<path d="" fill="#04DDFD" transform="translate(0,0)"/>
<path d="" fill="#02DAFC" transform="translate(0,0)"/>
<path d="" fill="#05D4F4" transform="translate(0,0)"/>
<path d="" fill="#03D8F8" transform="translate(0,0)"/>
<path d="" fill="#04D6F9" transform="translate(0,0)"/>
<path d="" fill="#0AD5F7" transform="translate(0,0)"/>
<path d="" fill="#05D8F5" transform="translate(0,0)"/>
<path d="" fill="#08CAEC" transform="translate(0,0)"/>
<path d="" fill="#05D4F5" transform="translate(0,0)"/>
<path d="" fill="#05D4F8" transform="translate(0,0)"/>
<path d="" fill="#08DAF5" transform="translate(0,0)"/>
<path d="" fill="#03DCFB" transform="translate(0,0)"/>
<path d="" fill="#08D2F4" transform="translate(0,0)"/>
<path d="" fill="#06D9F8" transform="translate(0,0)"/>
<path d="" fill="#09D2F0" transform="translate(0,0)"/>
<path d="" fill="#05D8F9" transform="translate(0,0)"/>
<path d="" fill="#0FC6E3" transform="translate(0,0)"/>
<path d="" fill="#0FCFEE" transform="translate(0,0)"/>
<path d="" fill="#10CFEF" transform="translate(0,0)"/>
<path d="" fill="#04D7F7" transform="translate(0,0)"/>
<path d="" fill="#03DCFC" transform="translate(0,0)"/>
<path d="" fill="#04DBFC" transform="translate(0,0)"/>
<path d="" fill="#01DAF9" transform="translate(0,0)"/>
<path d="" fill="#12CEEC" transform="translate(0,0)"/>
<path d="" fill="#04D9FB" transform="translate(0,0)"/>
<path d="" fill="#02D8FB" transform="translate(0,0)"/>
<path d="" fill="#0ED8F5" transform="translate(0,0)"/>
<path d="" fill="#08DAFD" transform="translate(0,0)"/>
<path d="" fill="#0DDBF9" transform="translate(0,0)"/>
<path d="" fill="#00D8FB" transform="translate(0,0)"/>
<path d="" fill="#01D8FC" transform="translate(0,0)"/>
<path d="" fill="#09DBFB" transform="translate(0,0)"/>
<path d="" fill="#09D6F5" transform="translate(0,0)"/>
<path d="" fill="#12D1F1" transform="translate(0,0)"/>
<path d="" fill="#0FDAF8" transform="translate(0,0)"/>
<path d="" fill="#0FCFEC" transform="translate(0,0)"/>
<path d="" fill="#04D8FB" transform="translate(0,0)"/>
<path d="" fill="#09DCF7" transform="translate(0,0)"/>
<path d="" fill="#03D9FD" transform="translate(0,0)"/>
<path d="" fill="#06DAFB" transform="translate(0,0)"/>
<path d="" fill="#04DBFC" transform="translate(0,0)"/>
<path d="" fill="#01D6FA" transform="translate(0,0)"/>
<path d="" fill="#05D8F9" transform="translate(0,0)"/>
<path d="" fill="#09D7F7" transform="translate(0,0)"/>
<path d="" fill="#09D4F4" transform="translate(0,0)"/>
<path d="" fill="#05DDFD" transform="translate(0,0)"/>
<path d="" fill="#09DAF7" transform="translate(0,0)"/>
<path d="" fill="#05DAFE" transform="translate(0,0)"/>
<path d="" fill="#0ADAF8" transform="translate(0,0)"/>
<path d="" fill="#04D7FC" transform="translate(0,0)"/>
<path d="" fill="#03E2FC" transform="translate(0,0)"/>
<path d="" fill="#00DBF9" transform="translate(0,0)"/>
<path d="" fill="#04DCFE" transform="translate(0,0)"/>
<path d="" fill="#05DEFD" transform="translate(0,0)"/>
<path d="" fill="#01D7F9" transform="translate(0,0)"/>
<path d="" fill="#03D0F1" transform="translate(0,0)"/>
<path d="" fill="#0DD4F3" transform="translate(0,0)"/>
<path d="" fill="#03D7FB" transform="translate(0,0)"/>
<path d="" fill="#06D3F6" transform="translate(0,0)"/>
<path d="" fill="#08D8F9" transform="translate(0,0)"/>
<path d="" fill="#02DDFD" transform="translate(0,0)"/>
<path d="" fill="#09DAF9" transform="translate(0,0)"/>
<path d="" fill="#00DBFE" transform="translate(0,0)"/>
<path d="" fill="#03D9FD" transform="translate(0,0)"/>
<path d="" fill="#00DBFD" transform="translate(0,0)"/>
<path d="" fill="#02D8FD" transform="translate(0,0)"/>
<path d="" fill="#03DBFF" transform="translate(0,0)"/>
<path d="" fill="#05D7FE" transform="translate(0,0)"/>
<path d="" fill="#0ADAFA" transform="translate(0,0)"/>
<path d="" fill="#01DAFB" transform="translate(0,0)"/>
<path d="" fill="#0AD7F4" transform="translate(0,0)"/>
<path d="" fill="#02D9FD" transform="translate(0,0)"/>
<path d="" fill="#0AD4F6" transform="translate(0,0)"/>
<path d="" fill="#0ED1F4" transform="translate(0,0)"/>
<path d="" fill="#02D8FC" transform="translate(0,0)"/>
<path d="" fill="#0BD8F4" transform="translate(0,0)"/>
<path d="" fill="#06D3F6" transform="translate(0,0)"/>
<path d="" fill="#00DAFB" transform="translate(0,0)"/>
<path d="" fill="#06D4F4" transform="translate(0,0)"/>
<path d="" fill="#05DAF9" transform="translate(0,0)"/>
<path d="" fill="#0CDDFB" transform="translate(0,0)"/>
<path d="" fill="#0DD4F7" transform="translate(0,0)"/>
<path d="" fill="#09D3F4" transform="translate(0,0)"/>
<path d="" fill="#01DAFB" transform="translate(0,0)"/>
<path d="" fill="#09D9FA" transform="translate(0,0)"/>
<path d="" fill="#08D9F9" transform="translate(0,0)"/>
<path d="" fill="#08D4F4" transform="translate(0,0)"/>
<path d="" fill="#06DAFA" transform="translate(0,0)"/>
<path d="" fill="#09D4F4" transform="translate(0,0)"/>
<path d="" fill="#00DEFD" transform="translate(0,0)"/>
<path d="" fill="#07D8FA" transform="translate(0,0)"/>
<path d="" fill="#0DCCEB" transform="translate(0,0)"/>
<path d="" fill="#0FCDF0" transform="translate(0,0)"/>
<path d="" fill="#0DCCEE" transform="translate(0,0)"/>
<path d="" fill="#0ECDEE" transform="translate(0,0)"/>
<path d="" fill="#05D9FC" transform="translate(0,0)"/>
<path d="" fill="#05E0FF" transform="translate(0,0)"/>
<path d="" fill="#02DBFC" transform="translate(0,0)"/>
<path d="" fill="#03DFFF" transform="translate(0,0)"/>
<path d="" fill="#12CAEC" transform="translate(0,0)"/>
<path d="" fill="#0EC6E7" transform="translate(0,0)"/>
<path d="" fill="#0CC9EA" transform="translate(0,0)"/>
<path d="" fill="#02DCFF" transform="translate(0,0)"/>
<path d="" fill="#05DAF9" transform="translate(0,0)"/>
<path d="" fill="#01DBFD" transform="translate(0,0)"/>
<path d="" fill="#02D9FA" transform="translate(0,0)"/>
<path d="" fill="#02DAFB" transform="translate(0,0)"/>
<path d="" fill="#01DCFC" transform="translate(0,0)"/>
<path d="" fill="#11D6F3" transform="translate(0,0)"/>
<path d="" fill="#04D9F9" transform="translate(0,0)"/>
<path d="" fill="#02DBFF" transform="translate(0,0)"/>
<path d="" fill="#05D9F9" transform="translate(0,0)"/>
<path d="" fill="#10C7E7" transform="translate(0,0)"/>
<path d="" fill="#00DAFD" transform="translate(0,0)"/>
<path d="" fill="#00DDFD" transform="translate(0,0)"/>
<path d="" fill="#04D9FE" transform="translate(0,0)"/>
<path d="" fill="#02DBFF" transform="translate(0,0)"/>
<path d="" fill="#06DCFC" transform="translate(0,0)"/>
<path d="" fill="#02D9FF" transform="translate(0,0)"/>
<path d="" fill="#0ED7F6" transform="translate(0,0)"/>
<path d="" fill="#0AD8F9" transform="translate(0,0)"/>
<path d="" fill="#07DAF9" transform="translate(0,0)"/>
<path d="" fill="#07DCFE" transform="translate(0,0)"/>
<path d="" fill="#09D9FC" transform="translate(0,0)"/>
<path d="" fill="#01E0FF" transform="translate(0,0)"/>
<path d="" fill="#05DCFF" transform="translate(0,0)"/>
<path d="" fill="#12D2F0" transform="translate(0,0)"/>
<path d="" fill="#04DAF9" transform="translate(0,0)"/>
<path d="" fill="#09CFF1" transform="translate(0,0)"/>
<path d="" fill="#10CCEF" transform="translate(0,0)"/>
<path d="" fill="#02DDFF" transform="translate(0,0)"/>
<path d="" fill="#08D0F0" transform="translate(0,0)"/>
<path d="" fill="#0AD1F0" transform="translate(0,0)"/>
<path d="" fill="#04D7FC" transform="translate(0,0)"/>
<path d="" fill="#02DCFD" transform="translate(0,0)"/>
<path d="" fill="#00DBFF" transform="translate(0,0)"/>
<path d="" fill="#0CCFEF" transform="translate(0,0)"/>
<path d="" fill="#0BD0EF" transform="translate(0,0)"/>
<path d="" fill="#05DAFD" transform="translate(0,0)"/>
<path d="" fill="#0FD3F4" transform="translate(0,0)"/>
<path d="" fill="#02DBFA" transform="translate(0,0)"/>
<path d="" fill="#04DAFA" transform="translate(0,0)"/>
<path d="" fill="#0BC5E8" transform="translate(0,0)"/>
<path d="" fill="#07D3F6" transform="translate(0,0)"/>
<path d="" fill="#06D8FA" transform="translate(0,0)"/>
<path d="" fill="#09D5F9" transform="translate(0,0)"/>
<path d="" fill="#03DDFD" transform="translate(0,0)"/>
<path d="" fill="#06DAFB" transform="translate(0,0)"/>
<path d="" fill="#06DAFA" transform="translate(0,0)"/>
<path d="" fill="#05D9F9" transform="translate(0,0)"/>
<path d="" fill="#05DAFB" transform="translate(0,0)"/>
<path d="" fill="#03D8FA" transform="translate(0,0)"/>
<path d="" fill="#13ABC7" transform="translate(0,0)"/>
<path d="" fill="#15ADC7" transform="translate(0,0)"/>
<path d="" fill="#07DBFA" transform="translate(0,0)"/>
<path d="" fill="#06DAFA" transform="translate(0,0)"/>
<path d="" fill="#0AD3F5" transform="translate(0,0)"/>
<path d="" fill="#15C8E7" transform="translate(0,0)"/>
<path d="" fill="#04DAFA" transform="translate(0,0)"/>
<path d="" fill="#04DDFF" transform="translate(0,0)"/>
<path d="" fill="#00E0FE" transform="translate(0,0)"/>
<path d="" fill="#08CCEF" transform="translate(0,0)"/>
<path d="" fill="#12CAE8" transform="translate(0,0)"/>
<path d="" fill="#04D3F2" transform="translate(0,0)"/>
<path d="" fill="#02DDFD" transform="translate(0,0)"/>
<path d="" fill="#03DEFD" transform="translate(0,0)"/>
<path d="" fill="#02DFFF" transform="translate(0,0)"/>
<path d="" fill="#03E1FF" transform="translate(0,0)"/>
<path d="" fill="#07DAFC" transform="translate(0,0)"/>
<path d="" fill="#00DDFE" transform="translate(0,0)"/>
<path d="" fill="#05DBFE" transform="translate(0,0)"/>
<path d="" fill="#00D8F9" transform="translate(0,0)"/>
<path d="" fill="#03D8FA" transform="translate(0,0)"/>
<path d="" fill="#05D7F6" transform="translate(0,0)"/>
<path d="" fill="#03D7F9" transform="translate(0,0)"/>
<path d="" fill="#03D1F6" transform="translate(0,0)"/>
<path d="" fill="#0EC3E1" transform="translate(0,0)"/>
<path d="" fill="#0FBBDA" transform="translate(0,0)"/>
<path d="" fill="#10B6D5" transform="translate(0,0)"/>
<path d="" fill="#13B5D4" transform="translate(0,0)"/>
<path d="" fill="#0BBBDE" transform="translate(0,0)"/>
<path d="" fill="#10BEDC" transform="translate(0,0)"/>
</svg>
